<?xml version="1.0" encoding="utf-8"?>
<!-- Generator: Adobe Illustrator 16.0.0, SVG Export Plug-In . SVG Version: 6.00 Build 0)  -->
<!DOCTYPE svg PUBLIC "-//W3C//DTD SVG 1.1//EN" "http://www.w3.org/Graphics/SVG/1.1/DTD/svg11.dtd">
<svg version="1.1" id="Layer_1" xmlns="http://www.w3.org/2000/svg" xmlns:xlink="http://www.w3.org/1999/xlink" x="0px" y="0px"
	 width="30px" height="30px" viewBox="0 0 30 30" enable-background="new 0 0 30 30" xml:space="preserve">
<path id="Facebook" fill="#E0E0E0" d="M29.766,28.08c0,0.883-0.723,1.605-1.604,1.605h-7.543V18.289h3.853l0.562-4.413h-4.414
	v-2.809c0-1.284,0.319-2.167,2.166-2.167h2.325V4.889c-0.399-0.08-1.764-0.161-3.448-0.161c-3.369,0-5.698,2.086-5.698,5.858v3.29
	h-3.852v4.413h3.852v11.396H1.84c-0.883,0-1.605-0.724-1.605-1.605V1.919c0-0.882,0.722-1.604,1.605-1.604h26.24
	c0.881,0,1.605,0.722,1.605,1.604V28.08H29.766z"/>
</svg>
