<?xml version="1.0" encoding="utf-8"?>
<!-- Generator: Adobe Illustrator 16.0.0, SVG Export Plug-In . SVG Version: 6.00 Build 0)  -->
<!DOCTYPE svg PUBLIC "-//W3C//DTD SVG 1.1//EN" "http://www.w3.org/Graphics/SVG/1.1/DTD/svg11.dtd">
<svg version="1.1" id="Layer_1" xmlns="http://www.w3.org/2000/svg" xmlns:xlink="http://www.w3.org/1999/xlink" x="0px" y="0px"
	 width="30px" height="30px" viewBox="0 0 30 30" enable-background="new 0 0 30 30" xml:space="preserve">
<g>
	<path fill="#FFFFFF" d="M15,28.729C7.43,28.729,1.271,22.57,1.271,15C1.271,7.43,7.43,1.271,15,1.271
		c7.57,0,13.729,6.159,13.729,13.729C28.729,22.57,22.57,28.729,15,28.729z"/>
	<path fill="#C7C6C6" d="M15,2.521c6.881,0,12.479,5.598,12.479,12.479S21.881,27.479,15,27.479S2.521,21.881,2.521,15
		S8.119,2.521,15,2.521 M15,0.021C6.728,0.021,0.021,6.728,0.021,15S6.728,29.979,15,29.979S29.979,23.272,29.979,15
		S23.272,0.021,15,0.021L15,0.021z"/>
</g>
<g>
	<path fill="#C7C6C6" d="M13.15,5.959h3.699v3.349H13.15V5.959z M13.197,11.346h3.606v12.695h-3.606V11.346z"/>
</g>
</svg>
