<?xml version="1.0" encoding="utf-8"?>
<!-- Generator: Adobe Illustrator 16.0.0, SVG Export Plug-In . SVG Version: 6.00 Build 0)  -->
<!DOCTYPE svg PUBLIC "-//W3C//DTD SVG 1.1//EN" "http://www.w3.org/Graphics/SVG/1.1/DTD/svg11.dtd">
<svg version="1.1" id="Layer_1" xmlns="http://www.w3.org/2000/svg" xmlns:xlink="http://www.w3.org/1999/xlink" x="0px" y="0px"
	 width="30px" height="30px" viewBox="0 0 30 30" enable-background="new 0 0 30 30" xml:space="preserve">
<path id="Instagram" fill="#E0E0E0" d="M26.025,0.535H3.973c-1.896,0-3.477,1.502-3.477,3.399v22.13c0,1.896,1.58,3.397,3.477,3.397
	h22.052c1.896,0,3.479-1.503,3.479-3.397V3.934C29.424,2.116,27.922,0.535,26.025,0.535z M21.283,5.12
	c0-0.475,0.396-0.87,0.869-0.87h2.688c0.475,0,0.869,0.395,0.869,0.87v2.688c0,0.474-0.395,0.87-0.869,0.87h-2.688
	c-0.477,0-0.869-0.396-0.869-0.87V5.12z M14.96,9.546c3.083,0,5.61,2.451,5.61,5.533c0,3.083-2.528,5.532-5.61,5.532
	c-3.083,0-5.533-2.449-5.533-5.532C9.427,11.997,11.877,9.546,14.96,9.546z M26.736,25.907c0,0.475-0.396,0.868-0.868,0.868H4.132
	c-0.475,0-0.869-0.396-0.869-0.868V12.312h3.636c-0.475,0.711-0.633,1.976-0.633,2.766c0,4.822,3.952,8.773,8.853,8.773
	c4.898,0,8.854-3.951,8.854-8.773c0-0.79-0.08-2.055-0.713-2.766h3.637v13.595H26.736z"/>
</svg>
