<?xml version="1.0" encoding="utf-8"?>
<!-- Generator: Adobe Illustrator 16.0.0, SVG Export Plug-In . SVG Version: 6.00 Build 0)  -->
<!DOCTYPE svg PUBLIC "-//W3C//DTD SVG 1.1//EN" "http://www.w3.org/Graphics/SVG/1.1/DTD/svg11.dtd">
<svg version="1.1" id="Layer_1" xmlns="http://www.w3.org/2000/svg" xmlns:xlink="http://www.w3.org/1999/xlink" x="0px" y="0px"
	 width="30px" height="30px" viewBox="0 0 30 30" enable-background="new 0 0 30 30" xml:space="preserve">
<g>
	<path fill="#E0E0E0" d="M0.211,15.713c0-9.28,6.767-15.58,15.643-15.58c8.972,0,13.938,5.898,13.938,12.819
		c0,6.271-3.878,9.84-8.189,9.84c-2.269,0-3.818-0.745-4.44-2.67h-0.123c-1.149,1.614-2.482,2.358-4.656,2.358
		c-2.979,0-5.184-2.108-5.184-6.114c0-5.277,2.918-9.25,7.294-9.25c1.863,0,3.164,0.809,3.848,2.08h0.094l0.371-1.677h3.973
		L21.1,17.393c-0.279,1.645,0.062,2.698,1.801,2.698c2.266,0,4.377-2.948,4.377-6.983c0-6.363-4.377-10.832-11.672-10.832
		C7.97,2.276,2.88,8.079,2.88,15.466c0,7.822,5.275,12.229,12.01,12.229c3.691,0,6.549-0.868,9.033-2.668l1.149,1.646
		c-2.455,1.892-5.402,3.196-10.586,3.196C6.14,29.867,0.211,24.093,0.211,15.713z M17.652,13.262c0-1.8-0.743-3.01-2.388-3.01
		c-2.389,0-3.817,2.916-3.817,6.112c0,1.956,0.808,3.043,2.389,3.043C16.382,19.407,17.652,16.116,17.652,13.262z"/>
</g>
</svg>
